<svg width="183" height="66" viewBox="0 0 183 66" fill="none" xmlns="http://www.w3.org/2000/svg">
<path fill-rule="evenodd" clip-rule="evenodd" d="M74.3567 17.6656H82.6037L94.2564 49.1697H85.7893L83.8692 43.521H73.0033L71.0398 49.1697H62.7049L74.3567 17.6656ZM74.8809 37.432H81.9501L78.5029 26.4012H78.416L74.8809 37.432ZM100.023 40.8181C100.023 40.8181 100.971 43.1942 102.978 43.1942C104.854 43.1942 105.905 41.7134 105.905 38.668V17.6656H114.023V39.1981C114.023 46.2575 110.444 49.7886 103.113 49.8321C98.5072 49.8587 95.9317 46.9475 95.4016 45.4924L100.023 40.8181ZM125.493 17.6656H133.741L145.393 49.1697H136.927L135.007 43.521H124.142L122.177 49.1697H113.842L125.493 17.6656ZM126.017 37.432H133.085L129.638 26.4012H129.551L126.017 37.432ZM158.089 32.6224L147.921 17.6656H157.478L162.715 27.4614L168.256 17.6656H177.509L167.427 32.6224L178.425 49.1697H168.563L162.715 38.668L156.345 49.1697H147.005L158.089 32.6224Z" fill="#236BB3"/>
<path fill-rule="evenodd" clip-rule="evenodd" d="M18.5401 8.41119H47.5398L61.506 33.0835L47.0823 57.5968H18.9987L4.57495 33.0835L18.5401 8.41119ZM18.8976 9.02424L5.28275 33.0775L19.3492 56.9837H46.7317L60.7982 33.0775L47.1824 9.02424H18.8976Z" fill="#236BB3"/>
<path fill-rule="evenodd" clip-rule="evenodd" d="M40.8447 44.5733H50.2407L33.4941 15.4602L16.4464 44.5733H25.8424L33.4941 39.517L40.8447 44.5733Z" fill="#236BB3"/>
</svg>
