<svg width="175" height="54" viewBox="0 0 175 54" fill="none" xmlns="http://www.w3.org/2000/svg">
<path d="M100.894 36.5742C104.174 36.1851 111.349 35.3339 112.628 36.9743C113.921 38.6306 111.194 45.4419 109.974 48.4868L109.972 48.4922C109.601 49.4154 110.396 49.7862 111.228 49.09C116.654 44.557 118.047 35.0597 116.942 33.69C115.837 32.3278 106.362 31.1548 100.588 35.2186C99.6952 35.8392 99.8465 36.7019 100.838 36.5808L100.894 36.5742Z" fill="#FF9900"/>
<path d="M71.0745 53.1992C83.682 53.1992 98.3253 49.2262 108.428 41.7797C110.1 40.5386 108.67 38.6922 106.96 39.4186C95.6388 44.2241 83.3264 46.5397 72.1339 46.5397C55.5382 46.5397 39.4723 41.9916 26.4787 34.4316C25.3436 33.7657 24.496 34.9311 25.442 35.7862C37.482 46.6608 53.3966 53.1992 71.0745 53.1992Z" fill="#FF9900"/>
<path fill-rule="evenodd" clip-rule="evenodd" d="M92.3924 31.1019C92.0368 31.4197 91.5222 31.4424 91.1211 31.2305C89.6011 29.9682 89.139 29.2814 88.4333 28.2324C88.3098 28.0489 88.1789 27.8542 88.0335 27.6435C85.0821 30.6554 82.9859 31.5559 79.1643 31.5559C74.6313 31.5559 71.1124 28.7635 71.1124 23.171C71.1124 18.8045 73.4735 15.8305 76.8486 14.3775C79.2978 13.2989 82.5608 12.965 85.3889 12.6756C85.9339 12.6199 86.4627 12.5658 86.9665 12.5083V11.8121C86.9665 11.6819 86.9675 11.5493 86.9685 11.4149C86.9776 10.2292 86.9878 8.90717 86.3081 7.9148C85.6573 6.92344 84.4011 6.51479 83.2886 6.51479C81.2378 6.51479 79.414 7.56669 78.9675 9.74615C78.8767 10.2305 78.5211 10.7072 78.0292 10.7299L72.8151 10.1699C72.3762 10.0716 71.8843 9.71588 72.0129 9.04237C73.2086 2.71587 78.9297 0.808838 84.0454 0.808838C86.6638 0.808838 90.0843 1.50506 92.1503 3.48776C94.5573 5.73483 94.5405 8.6726 94.5221 11.8895C94.5205 12.1719 94.5189 12.4565 94.5189 12.7429V21.1278C94.5189 23.3777 95.3513 24.4995 96.2299 25.6836C96.3354 25.8257 96.4416 25.9688 96.547 26.1148C96.8876 26.5991 96.9633 27.1818 96.5243 27.5451C95.427 28.4608 93.4746 30.1635 92.4 31.117L92.3924 31.1019ZM86.9665 17.9872C86.9665 18.0832 86.9666 18.1784 86.9667 18.273C86.969 20.2438 86.9709 21.9168 85.96 23.6932C85.1048 25.2067 83.7427 26.1375 82.2367 26.1375C80.1708 26.1375 78.96 24.5635 78.96 22.2402C78.96 17.6543 83.0692 16.8218 86.9665 16.8218V17.9872Z" fill="black"/>
<path d="M31.1707 31.1775H36.5512C37.1264 31.1775 37.588 30.7311 37.588 30.1786V15.5429C37.588 15.4283 37.5878 15.3121 37.5876 15.1946C37.5823 12.0379 37.5754 7.92994 41.3037 7.92994C44.7353 7.92994 44.6767 11.5849 44.629 14.5609C44.6235 14.899 44.6183 15.2287 44.6183 15.5429L44.6258 30.1786C44.6258 30.7084 45.0496 31.1397 45.5945 31.1775H50.9675C51.5426 31.1775 52.0042 30.7311 52.0042 30.1786V15.5429C52.0042 15.4207 52.0039 15.2938 52.0036 15.1631C51.9996 13.6184 51.9943 11.537 52.5037 10.2532C53.0561 8.86075 54.4183 7.99048 55.7199 7.99048C57.2788 7.99048 58.4821 8.51264 58.8831 10.3667C59.0902 11.256 59.062 13.3123 59.0431 14.6885C59.0385 15.022 59.0345 15.3156 59.0345 15.5429V30.1786C59.0345 30.7084 59.4659 31.1397 60.0031 31.1775H65.3761C65.9513 31.1775 66.4129 30.7311 66.4129 30.1786L66.4205 12.7505C66.4205 12.3255 66.4276 11.892 66.4349 11.4542L66.4349 11.4535C66.4781 8.84332 66.5239 6.08259 65.0659 4.09317C63.5599 2.00452 61.0929 1.07371 58.8377 1.07371C55.6669 1.07371 52.708 2.70074 51.4064 6.1894C49.8929 2.70074 47.7891 1.07371 44.4215 1.07371C41.1069 1.07371 38.6474 2.70074 37.3382 6.1894H37.2399V2.57966C37.202 2.0802 36.7858 1.6791 36.2636 1.65642H31.2463C30.6712 1.65642 30.2096 2.09534 30.2096 2.64777V30.2619C30.2474 30.7538 30.6561 31.1397 31.1707 31.1775Z" fill="black"/>
<path d="M101.065 2.57964V6.52991C101.065 7.12019 101.519 7.52127 102.086 7.52127H111.326L100.709 22.7472C100.066 23.7234 100.058 24.8208 100.058 25.464V29.4672C100.058 30.0424 100.702 30.7083 101.314 30.3754C107.331 27.1818 114.558 27.4921 119.999 30.3451C120.665 30.6932 121.3 30.0197 121.3 29.4445V25.2294C121.248 24.6618 121.058 24.0867 120.362 23.6932C117.275 21.9526 113.68 21.4456 110.275 21.5289L119.439 8.44451C120.286 7.27153 120.763 6.52991 120.771 5.96234V2.57964C120.771 1.98937 120.317 1.58072 119.749 1.58072H102.064C101.519 1.58072 101.065 1.9818 101.065 2.57964Z" fill="black"/>
<path fill-rule="evenodd" clip-rule="evenodd" d="M135.997 1.07371C143.981 1.07371 148.302 7.92994 148.302 16.6478C148.302 25.0705 143.526 31.7527 135.997 31.7527C128.157 31.7527 123.889 24.8964 123.889 16.3527C123.889 7.75588 128.21 1.07371 135.997 1.07371ZM136.042 6.71156C132.077 6.71156 131.827 12.1148 131.827 15.4824L131.827 15.6063C131.826 19.0305 131.825 26.0619 135.997 26.0619C140.167 26.0619 140.363 20.25 140.363 16.7083C140.363 14.3775 140.265 11.5926 139.561 9.38291C138.956 7.46075 137.752 6.71156 136.042 6.71156Z" fill="black"/>
<path d="M153.296 31.1775H158.654C159.229 31.1775 159.698 30.7311 159.706 30.1786V15.3083C159.706 13.4467 159.804 11.7667 160.561 10.0791C161.159 8.74724 162.362 7.8694 163.671 7.8694C167.101 7.8694 167.069 11.6341 167.043 14.5881C167.041 14.8347 167.039 15.0757 167.039 15.3083V30.3073C167.092 30.7765 167.501 31.1397 167.993 31.1775H173.388C173.918 31.1775 174.364 30.7916 174.425 30.3073V12.9245C174.425 10.2532 174.425 6.5375 173.017 4.32777C171.504 1.94398 169.15 1.07371 166.736 1.07371C163.021 1.07371 160.909 2.87479 159.403 6.65102H159.305V2.42831C159.199 1.99696 158.813 1.6791 158.344 1.65642H153.357C152.812 1.65642 152.365 2.04993 152.32 2.55696L152.328 30.1786C152.328 30.7084 152.759 31.1397 153.296 31.1775Z" fill="black"/>
<path fill-rule="evenodd" clip-rule="evenodd" d="M20.5836 31.2306C20.9847 31.4424 21.4993 31.4197 21.855 31.1019L21.8701 31.117C22.9447 30.1635 24.8971 28.4608 25.9944 27.5451C26.4334 27.1819 26.3577 26.5992 26.0096 26.1149C25.9041 25.9688 25.798 25.8258 25.6925 25.6836C24.8139 24.4996 23.9815 23.3777 23.9815 21.1278V12.743C23.9815 12.4565 23.9831 12.172 23.9847 11.8896C24.0031 8.67263 24.0199 5.73487 21.6128 3.4878C19.5469 1.5051 16.1263 0.808882 13.5079 0.808882C8.39226 0.808882 2.67874 2.71592 1.47549 9.04241C1.35441 9.71592 1.83874 10.0716 2.27766 10.17L7.49929 10.73C7.98361 10.7073 8.33928 10.2305 8.4301 9.74619C8.87658 7.56673 10.7079 6.51484 12.7587 6.51484C13.8636 6.51484 15.1198 6.92349 15.7782 7.91484C16.4505 8.90632 16.4403 10.2269 16.4311 11.4117C16.4301 11.5472 16.429 11.6809 16.429 11.8121V12.5084C15.9253 12.5658 15.3965 12.6199 14.8515 12.6757C12.0234 12.9651 8.76031 13.2989 6.31117 14.3776C2.9436 15.8305 0.574951 18.8046 0.574951 23.1711C0.574951 28.7635 4.10144 31.556 8.62685 31.556C12.4561 31.556 14.5447 30.6554 17.4961 27.6435C17.6518 27.8675 17.7908 28.0733 17.9216 28.2669C18.6172 29.2966 19.0804 29.9821 20.5836 31.2306ZM16.4292 18.273C16.4291 18.1785 16.429 18.0832 16.429 17.9873V16.8219C12.5393 16.8219 8.4301 17.6543 8.4301 22.2403C8.4301 24.5635 9.63334 26.1376 11.6993 26.1376C13.2128 26.1376 14.5674 25.2068 15.4225 23.6932C16.4335 21.9168 16.4315 20.2438 16.4292 18.273Z" fill="black"/>
</svg>
