<svg width="240" height="50" viewBox="0 0 240 50" fill="none" xmlns="http://www.w3.org/2000/svg">
<path fill-rule="evenodd" clip-rule="evenodd" d="M79.5117 18.484C79.5133 18.4926 79.5149 18.5012 79.5165 18.5099H79.5138C79.5162 18.5217 79.5191 18.5326 79.522 18.5433C79.5258 18.557 79.5294 18.5704 79.5319 18.5855C79.5412 18.6611 79.5472 18.7367 79.5472 18.8139V31.2084C79.5472 31.2856 79.5417 31.3612 79.5319 31.4368C79.5301 31.4532 79.5268 31.4692 79.5235 31.4852C79.5216 31.4942 79.5197 31.5033 79.5182 31.5124C79.5089 31.5617 79.5001 31.611 79.4875 31.6592C79.4793 31.6877 79.4694 31.7156 79.4601 31.7441C79.4464 31.7868 79.4322 31.8296 79.4152 31.8717C79.4058 31.8939 79.3954 31.9158 79.3851 31.9376C79.3821 31.9438 79.3792 31.9499 79.3763 31.9561C79.3577 31.9956 79.3385 32.0344 79.3166 32.0728C79.3007 32.0996 79.2837 32.1265 79.2667 32.1528C79.2432 32.1889 79.2191 32.2245 79.1928 32.259C79.1736 32.2853 79.1539 32.31 79.1331 32.3346C79.1057 32.3675 79.0766 32.3987 79.0465 32.4294C79.0235 32.4524 79.0005 32.476 78.9764 32.4973C78.9446 32.5258 78.9112 32.5538 78.8772 32.5806C78.8509 32.6009 78.8252 32.6211 78.7978 32.6403C78.7941 32.643 78.7906 32.6457 78.7871 32.6484C78.7812 32.653 78.7753 32.6575 78.7688 32.6617L60.1776 45.0556C59.884 45.2512 59.5476 45.3481 59.208 45.3498C58.8684 45.3514 58.532 45.2528 58.2384 45.0556L39.6522 32.6551C39.6464 32.6525 39.642 32.6482 39.6376 32.644C39.6337 32.6402 39.6297 32.6363 39.6248 32.6337C39.6121 32.6214 39.5973 32.6107 39.5819 32.5996C39.5707 32.5915 39.5592 32.5833 39.5481 32.574C39.5309 32.5591 39.5134 32.5445 39.4961 32.5301C39.4803 32.5169 39.4646 32.5038 39.4495 32.4908C39.4297 32.4789 39.413 32.4613 39.3968 32.4441C39.3906 32.4376 39.3845 32.4311 39.3783 32.425C39.3489 32.3991 39.3243 32.37 39.2995 32.3407C39.2965 32.3372 39.2936 32.3337 39.2906 32.3303C39.2869 32.3258 39.2833 32.3214 39.2797 32.3171C39.2622 32.2963 39.2463 32.2774 39.2304 32.2547C39.203 32.2218 39.1772 32.1889 39.1537 32.1506C39.1373 32.1254 39.1197 32.098 39.1044 32.0706C39.0825 32.0306 39.0622 31.9923 39.0441 31.9539C39.0383 31.9394 39.0311 31.9249 39.024 31.9104C39.0176 31.8975 39.0112 31.8846 39.0058 31.8717C38.9893 31.8318 38.9757 31.7879 38.962 31.7441C38.951 31.714 38.9422 31.6866 38.9346 31.6592C38.92 31.6154 38.9123 31.5716 38.9046 31.5277C38.9036 31.5223 38.9027 31.5168 38.9017 31.5113C38.8997 31.5016 38.8974 31.4924 38.8952 31.4834C38.8914 31.468 38.8877 31.453 38.8853 31.4357C38.8743 31.3607 38.8688 31.284 38.8688 31.2073V18.8106C38.8688 18.7334 38.8743 18.6578 38.8842 18.5822C38.8865 18.5639 38.8902 18.5462 38.8939 18.5284C38.8955 18.5211 38.897 18.5139 38.8984 18.5066C38.9072 18.4567 38.9165 18.408 38.9291 18.3598C38.9342 18.3426 38.9403 18.3245 38.9465 18.3059C38.9496 18.2966 38.9528 18.2871 38.9559 18.2776C38.9696 18.2349 38.9844 18.1921 39.0014 18.1505C39.0102 18.1287 39.0206 18.1069 39.0309 18.0853C39.0341 18.0787 39.0372 18.0721 39.0403 18.0656C39.0584 18.0273 39.0775 17.9884 39.0995 17.9506C39.1153 17.9226 39.1323 17.8963 39.1493 17.8695C39.1729 17.8328 39.197 17.7977 39.2233 17.7632C39.2424 17.7358 39.2622 17.7112 39.283 17.6865C39.3109 17.6537 39.3394 17.6224 39.3701 17.5918C39.3925 17.5682 39.4155 17.5452 39.4396 17.5233C39.4714 17.4953 39.5048 17.468 39.5388 17.4411C39.5428 17.438 39.5468 17.4349 39.5508 17.4318C39.573 17.4147 39.595 17.3977 39.6182 17.3814C39.623 17.3782 39.6273 17.3747 39.6315 17.3712C39.6366 17.3671 39.6416 17.3631 39.6473 17.3595L58.2384 4.96557C58.8251 4.5739 59.5904 4.5739 60.1771 4.96557L78.7671 17.36C78.7728 17.3637 78.7781 17.3678 78.7832 17.3719C78.7875 17.3753 78.7917 17.3787 78.7962 17.382C78.8176 17.3965 78.8379 17.4124 78.8584 17.4283C78.8641 17.4328 78.8698 17.4372 78.8756 17.4417C78.9101 17.468 78.943 17.4953 78.9747 17.5244C78.9988 17.5468 79.0219 17.5698 79.0449 17.5929C79.0744 17.6235 79.104 17.6548 79.1314 17.6876C79.1522 17.7123 79.172 17.7369 79.1911 17.7627C79.2174 17.7972 79.2415 17.8328 79.2651 17.8689C79.2687 17.8747 79.2724 17.8805 79.2761 17.8863C79.2895 17.9072 79.3029 17.9281 79.3149 17.95C79.3368 17.9878 79.356 18.0267 79.3746 18.0662C79.3773 18.0719 79.38 18.0776 79.3828 18.0833C79.3933 18.1056 79.4039 18.128 79.4135 18.1511C79.4305 18.1927 79.4448 18.2354 79.4585 18.2782C79.4612 18.2865 79.464 18.2948 79.4667 18.303C79.4734 18.3228 79.48 18.3425 79.4858 18.3631C79.4967 18.4028 79.5042 18.4433 79.5117 18.484ZM53.0256 25.0111L59.2075 29.1459L65.3899 25.0111L59.2075 20.8758L53.0256 25.0111ZM49.8818 22.9081L57.46 17.8394V9.68594L43.7645 18.8161L49.8818 22.9081ZM42.3654 27.9353L46.7379 25.0106L42.3654 22.0859V27.9353ZM57.46 32.1834L49.8818 27.1152V27.1141L43.7645 31.2056L57.46 40.3369V32.1834ZM68.5337 27.1141L60.9555 32.1824V40.3358L74.6515 31.2056L68.5337 27.1141ZM71.6784 25.0111L76.0506 27.9364V22.0864L71.6784 25.0111ZM60.9555 17.8399L68.5337 22.9081L74.6515 18.8161L60.9555 9.68594V17.8399Z" fill="#CCCCCC"/>
<path d="M21.4746 14.6594C24.0037 14.6598 26.3214 15.5746 28.1233 17.0856L30.573 14.1659C28.1101 12.0958 24.9362 10.8457 21.4741 10.8457C13.663 10.8457 7.30859 17.2001 7.30859 25.0106C7.30859 32.8222 13.663 39.1767 21.4746 39.1745C24.9367 39.1745 28.1107 37.9244 30.5736 35.8543L28.1238 32.9345C26.3237 34.447 24.0038 35.3607 21.4741 35.3607C15.7666 35.3607 11.1229 30.7176 11.1229 25.0106C11.1224 19.3037 15.7666 14.6584 21.4746 14.6594Z" fill="#CCCCCC"/>
<path fill-rule="evenodd" clip-rule="evenodd" d="M99.8809 11.6636H92.2556C91.2027 11.6636 90.3492 12.5176 90.3492 13.5699V36.4509C90.3492 37.5027 91.2038 38.3572 92.2556 38.3572H99.8826C107.243 38.3572 113.23 32.3698 113.23 25.0101C113.23 17.6494 107.243 11.6619 99.8809 11.6636ZM99.8809 34.5445H94.1625V15.4774H99.8826C105.14 15.4774 109.414 19.7556 109.414 25.0112C109.416 30.2706 105.14 34.5434 99.8809 34.5445Z" fill="#CCCCCC"/>
<path d="M123.555 36.4513V13.5704H123.557C123.557 12.5164 124.409 11.6618 125.461 11.664H141.351V15.4772H127.368V23.1037H136.266V26.9169H127.368V34.5444H141.351V38.3577H125.461C124.409 38.3577 123.555 37.5031 123.555 36.4513Z" fill="#CCCCCC"/>
<path d="M181.272 13.5704V36.4513C181.272 37.5031 182.127 38.3577 183.179 38.3577H199.068V34.5444H185.085V26.9169H193.984V23.1037H185.085V15.4772H199.068V11.664H183.179C182.126 11.6618 181.273 12.5164 181.273 13.5704H181.272Z" fill="#CCCCCC"/>
<path fill-rule="evenodd" clip-rule="evenodd" d="M154.863 11.6636H163.124C167.331 11.6619 170.753 15.0857 170.753 19.2906C170.753 23.4955 167.332 26.917 163.126 26.917H156.77V38.3578H152.956V13.5699C152.956 12.5176 153.81 11.6636 154.863 11.6636ZM156.77 23.1038H163.124C165.229 23.1054 166.938 21.3947 166.938 19.2906C166.938 17.1865 165.229 15.4774 163.126 15.4774H156.77V23.1038Z" fill="#CCCCCC"/>
<path d="M228.88 31.1847L213.184 12.3492C212.67 11.7319 211.825 11.5029 211.07 11.7768C210.315 12.0507 209.812 12.7672 209.812 13.5697V38.3576H213.626V18.8368L229.322 37.6717C229.691 38.1154 230.231 38.3565 230.784 38.3565C231.001 38.3565 231.221 38.3203 231.433 38.2431C232.188 37.9692 232.691 37.2527 232.691 36.4501V11.6623H228.88V31.1847Z" fill="#CCCCCC"/>
</svg>
