<svg width="435" height="72" viewBox="0 0 435 72" fill="none" xmlns="http://www.w3.org/2000/svg">
<path fill-rule="evenodd" clip-rule="evenodd" d="M13.0908 16.5011H26.4021C35.8232 16.584 43.5228 24.8967 43.5228 35.0553C43.5228 45.2531 35.8232 53.5658 26.4021 53.6509H13.0908V16.5011ZM18.9075 21.0065V49.2676H24.8879C33.4886 49.0254 37.7497 42.3469 37.7497 35.2211C37.7497 28.1345 33.4079 22.3593 26.4043 21.1724L18.9075 21.0065ZM65.9279 15.6414C77.2319 15.6414 86.4479 24.4058 86.4479 35.0967C86.4479 45.7876 77.2319 54.5127 65.9279 54.5127C54.6654 54.5127 45.4494 45.7854 45.4494 35.0967C45.4494 24.408 54.6654 15.6414 65.9279 15.6414ZM66.0108 20.352C74.2014 20.352 80.8777 26.9454 80.8777 35.0553C80.8777 43.1214 74.2014 49.7193 66.0108 49.7193C57.8203 49.7193 51.1025 43.1236 51.1025 35.0553C51.1003 26.9454 57.8181 20.352 66.0108 20.352ZM88.045 16.584H93.5323V49.3484H104.018V53.6094H88.045V16.584ZM121.837 15.4364C126.096 15.4364 130.069 16.7062 133.346 18.8356V25.5949C130.601 22.3178 126.506 20.1884 121.878 20.1884C113.688 20.1884 107.012 26.8647 107.012 35.0553C107.012 43.2065 113.688 49.8807 121.878 49.8807C126.508 49.8807 130.604 47.7534 133.346 44.4764V51.3163C129.931 53.5683 125.928 54.7642 121.837 54.7549C110.533 54.7549 101.317 45.9076 101.317 35.0945C101.317 24.2836 110.533 15.4364 121.837 15.4364ZM140.841 49.2284H154.11V53.6094H135.065V16.5818H154.11V20.76H140.841V31.7782H154.11V36.2814H140.841V49.2284ZM174.999 51.2749C174.399 51.85 173.707 52.3212 172.953 52.6691C172.201 53.0799 171.384 53.3567 170.537 53.4873C170.332 53.5309 170.127 53.568 169.922 53.568C169.717 53.6116 169.512 53.6116 169.309 53.6116C168.735 53.6116 168.161 53.5309 167.588 53.4065C167.027 53.2401 166.501 52.9765 166.032 52.6276C165.493 52.2003 165.059 51.6556 164.762 51.0349C164.405 50.4337 164.181 49.7624 164.108 49.0669V48.8204C164.066 48.7004 164.066 48.6153 164.066 48.5345C164.066 48.4538 164.066 48.4102 164.108 48.3294V48.0829V48.0022C164.149 47.9629 164.149 47.9629 164.149 47.9214V47.76V47.6356C164.396 46.4902 164.928 45.5869 165.746 44.8494C166.523 44.112 167.382 43.4553 168.286 42.9229C167.798 42.3509 167.347 41.749 166.935 41.1207C166.53 40.5464 166.315 39.8598 166.32 39.1571V38.8298C166.361 38.7491 166.361 38.6684 166.361 38.544C166.403 38.544 166.403 38.5004 166.403 38.4633V38.4196C166.431 38.3707 166.446 38.3148 166.444 38.2582C166.444 38.2145 166.486 38.1774 166.486 38.1338C166.691 37.2305 167.14 36.5367 167.878 36.0458C168.56 35.5883 169.351 35.3195 170.171 35.2669H170.703C171.687 35.3476 172.63 35.7185 173.448 36.3753C174.268 36.9883 174.676 37.8873 174.676 39.0764C174.676 40.1804 174.308 41.0836 173.653 41.7403C172.998 42.4342 172.22 43.0495 171.399 43.6233L175.333 48.3753C175.702 47.9236 176.11 47.472 176.478 47.0247C176.806 46.5731 177.174 46.0778 177.462 45.5891L178.813 46.9833C178.575 47.4371 178.286 47.8631 177.953 48.2531C177.668 48.6196 177.338 49.032 177.011 49.3985C176.928 49.4796 176.845 49.5618 176.764 49.6451L176.518 49.8873L179.385 53.3694H176.845L174.999 51.2749ZM170.044 51.8073C170.74 51.7265 171.395 51.5214 171.969 51.1505C172.542 50.7795 173.089 50.3698 173.607 49.9244C173.649 49.9244 173.69 49.8807 173.732 49.8436C173.773 49.8436 173.814 49.8 173.856 49.7629L169.39 44.4371C169.348 44.4371 169.348 44.4807 169.309 44.5178C169.268 44.5178 169.226 44.5614 169.185 44.5985C169.104 44.6422 169.062 44.6836 168.98 44.7229C168.938 44.7229 168.899 44.7665 168.855 44.808C168.486 45.0502 168.159 45.2989 167.832 45.5411C167.505 45.7876 167.217 46.1171 166.97 46.4444C166.887 46.6058 166.765 46.7716 166.684 46.9767C166.591 47.1573 166.522 47.3496 166.479 47.5484L166.357 48.0436C166.316 48.2051 166.316 48.3709 166.316 48.5345C166.316 49.3964 166.643 50.1753 167.3 50.8691C167.913 51.5258 168.733 51.8923 169.715 51.8923C169.715 51.8923 169.756 51.8924 169.756 51.8531H169.922C169.964 51.8531 169.964 51.8094 170.005 51.8094H170.044V51.8073ZM168.406 38.8233V38.9476C168.406 38.9913 168.364 39.0283 168.364 39.072V39.1527C168.364 39.6044 168.486 40.0145 168.733 40.3833C168.977 40.7935 169.265 41.1578 169.593 41.4873C169.676 41.6116 169.798 41.7338 169.881 41.8538C169.961 41.9782 170.086 42.0633 170.166 42.1811C170.249 42.1418 170.289 42.1004 170.372 42.0611C170.427 42.0076 170.5 41.9772 170.577 41.976C171.068 41.6902 171.478 41.3629 171.888 40.9964C172.298 40.6254 172.542 40.1738 172.625 39.6022V39.4778V39.3535C172.625 39.3142 172.667 39.2727 172.667 39.2291V39.1484C172.667 38.5767 172.462 38.0836 172.054 37.7542C171.683 37.4053 171.207 37.1896 170.701 37.1411H170.33C169.92 37.1411 169.512 37.3069 169.143 37.5513C168.936 37.6981 168.764 37.8877 168.636 38.1072C168.509 38.3266 168.43 38.5708 168.406 38.8233ZM209.282 15.2727C216.652 15.2727 223.167 19.0407 226.811 24.6524L222.022 27.1091C220.669 24.9639 218.795 23.1963 216.575 21.9716C214.354 20.7469 211.859 20.1048 209.324 20.1055C201.05 20.064 194.332 26.7818 194.332 35.0553C194.332 43.2873 201.05 50.0051 209.324 50.0051C216.286 50.0051 221.775 46.5229 222.183 39.2749H210.225V34.8916H221.897C221.897 34.8087 227.838 34.8916 228.205 34.8916V35.0967C228.205 46.6887 221.897 54.9229 209.284 54.9229C196.628 54.9229 188.601 45.9905 188.601 35.0967C188.601 24.2029 197.895 15.2727 209.282 15.2727ZM225.094 53.6094L240.41 16.4618H244.058L259.497 53.6094H253.475L249.218 43.1214H235.169L230.993 53.6094H225.094ZM237.299 38.4131L242.254 25.2262L247.292 38.4131H237.299ZM313.318 53.6094L328.636 16.4618H332.28L347.723 53.6094H341.701L337.44 43.1214H323.391L319.215 53.6094H313.318ZM325.564 38.4131L330.478 25.2262L335.516 38.4131H325.564ZM386.876 53.6094L402.194 16.4618H405.838L421.281 53.6094H415.259L410.998 43.1214H396.949L392.773 53.6094H386.876ZM399.081 38.4131L404.036 25.2262L409.078 38.4131H399.081ZM272.766 20.8036C276.414 21.2138 277.765 22.7695 277.765 26.4153C277.809 30.0589 275.306 31.9855 272.114 31.9855H267.277V20.7622H272.766V20.8036ZM273.054 36.4887H273.34C276.041 36.4887 280.874 37.1062 280.874 43.1236C280.874 47.9607 276.654 49.3505 272.646 49.3113L273.626 49.3505H267.277V36.4887H273.054ZM265.926 53.6094H275.511C282.065 53.6094 286.778 49.3091 286.778 43.1214C286.778 38.3738 283.824 34.7258 279.648 33.2945C282.026 31.7782 283.377 29.0749 283.377 25.6342C283.377 20.0225 279.604 16.584 274.036 16.4596C271.006 16.4182 267.934 16.4596 264.862 16.4596H261.504V53.6073H265.926V53.6094ZM300.903 20.8036C304.551 21.2138 305.902 22.7695 305.945 26.4153C305.985 30.0589 303.486 31.9855 300.29 31.9855H295.457V20.7622H300.903V20.8036ZM301.23 36.4887H301.521C304.18 36.4887 309.054 37.1062 309.054 43.1236C309.054 47.9607 304.798 49.3505 300.822 49.3113L301.765 49.3505H295.457V36.4887H301.23ZM294.107 53.6094H303.692C310.202 53.6094 314.954 49.3091 314.954 43.1214C314.954 38.3738 311.967 34.7258 307.787 33.2945C310.202 31.7782 311.516 29.0749 311.516 25.6342C311.516 20.0225 307.748 16.584 302.217 16.4596C299.145 16.4182 296.073 16.4596 293.003 16.4596H289.684V53.6073H294.107V53.6094ZM350.177 16.584H353.701L379.708 44.064V16.584H384.746V53.6094H380.897L355.418 26.4131V53.6094H350.177V16.584Z" fill="black"/>
</svg>
