<svg width="223" height="61" viewBox="0 0 223 61" fill="none" xmlns="http://www.w3.org/2000/svg">
<path d="M71.1529 25.46C73.5274 25.46 75.4523 23.5344 75.4523 21.1592C75.4523 18.784 73.5274 16.8585 71.1529 16.8585C68.7781 16.8585 66.8533 18.784 66.8533 21.1592C66.8533 23.5344 68.7781 25.46 71.1529 25.46ZM213.048 40.154C212.394 39.694 211.888 39.618 211.47 40.5112C204.248 56.1511 192.079 48.3467 193.289 49.0335C195.988 47.7986 203.087 42.1051 202.014 34.2439C201.362 29.4394 197.238 27.3084 192.861 28.0715C185.222 29.4033 182.411 37.6438 183.842 44.9399C184.092 46.1926 184.54 47.2262 184.986 48.2383C176.353 55.2592 172.924 41.953 172.535 40.3631C172.52 40.2782 179.201 34.7086 181.06 21.4368C183.008 7.52736 178.57 4.99498 174.033 5.07391C165.637 5.22024 163.368 22.7629 166.416 37.3833C166.161 37.4498 164.973 38.1079 163.064 38.1815C161.69 33.8592 155.82 30.0704 154.284 31.5302C150.439 35.1829 155.216 42.323 158.578 42.8833C156.558 55.3201 143.93 52.2397 146.281 36.6583C150.394 29.0222 153.521 17.6673 152.963 10.8124C152.765 8.38538 150.971 5.13377 146.912 5.29451C139.108 5.60358 138.259 23.1511 139.174 35.6052C139.129 35.2986 138.695 37.1184 135.496 38.0234C134.739 33.8238 127.978 29.6086 126.386 31.6353C123.406 35.4283 128.57 42.1909 131.016 42.6629C128.997 55.0995 116.369 52.0191 118.72 36.4377C122.832 28.8016 125.959 17.4467 125.401 10.5918C125.204 8.16478 123.41 4.91317 119.351 5.07391C111.546 5.3832 110.698 22.9305 111.613 35.3846C111.567 35.0733 111.122 36.9528 107.793 37.8432C107.682 32.3948 100.896 29.8968 99.2653 31.6353C96.36 34.7337 99.9307 41.0919 103.234 42.6629C101.215 55.0995 88.5873 52.0191 90.9381 36.4377C95.0502 28.8016 98.1776 17.4467 97.6193 10.5918C97.4218 8.16478 95.6277 4.91317 91.5691 5.07391C83.7642 5.3832 83.1363 23.8127 84.0516 36.2668C81.4808 47.2811 72.8596 61.0363 73.9795 33.4819C74.0901 31.5492 74.2109 30.8149 73.2474 30.0915C72.5251 29.5288 70.8831 29.7993 69.9858 29.8219C68.8948 29.8656 68.6212 30.5041 68.3802 31.4688C67.8184 33.9601 67.7177 36.3752 67.6374 39.6705C67.5847 41.212 67.461 41.9313 66.8677 44.0331C66.2744 46.1349 62.8924 49.9758 61.0402 49.334C58.4713 48.45 59.3135 41.1976 59.7953 36.2145C60.1966 32.2762 58.9123 30.5081 55.6207 29.8649C53.6939 29.4632 52.523 29.525 50.5165 28.8925C48.6189 28.2943 48.1894 24.7046 44.1426 25.9009C41.9283 26.5557 43.3515 31.2464 42.8196 34.723C40.2039 51.8238 34.7611 52.2934 32.2361 43.9861C43.608 16.135 35.5258 5.15506 30.7954 5.15506C25.8676 5.15506 20.2349 8.549 22.62 30.266C21.4603 29.9277 21.1037 29.7454 19.8342 29.7454C12.6539 29.7454 7.76166 35.55 7.76166 42.7104C7.76166 49.8707 12.6539 55.6753 19.8342 55.6753C24.0731 55.6753 27.0487 53.7478 29.3028 50.7656C30.7732 52.8716 32.564 55.7079 35.8386 55.5802C45.5992 55.2002 48.4382 35.1782 48.773 34.0614C49.8166 34.2222 50.8039 34.5266 51.7672 34.6873C53.3728 34.9286 53.4892 35.564 53.4531 37.1789C53.0278 50.7959 55.5405 55.5638 61.2402 55.5638C64.416 55.5638 67.2468 52.4439 69.1967 50.2126C70.6531 53.2186 72.9738 55.472 76.0871 55.5638C83.6314 55.7512 86.5196 43.7271 86.2565 45.3095C86.0498 46.5511 88.7039 55.496 96.4704 55.5286C106.091 55.5687 107.879 44.9891 108.093 43.217C108.119 42.8642 108.131 42.9013 108.093 43.217C108.09 43.2498 108.088 43.2848 108.085 43.3245C111.139 42.7565 112.715 41.1189 112.715 41.1189C112.715 41.1189 115.168 55.6931 124.252 55.5286C133.685 55.3576 135.464 45.7946 135.698 43.9296C135.729 43.487 135.747 43.5389 135.698 43.9296C135.697 43.948 135.696 43.9641 135.695 43.9843C139.323 42.6642 140.277 41.3395 140.277 41.3395C140.277 41.3395 142.226 55.6239 151.814 55.7489C160.358 55.8605 163.524 47.1115 163.543 43.4493C164.984 43.4646 167.649 42.5946 167.587 42.5448C167.587 42.5448 170.716 55.0339 179.456 55.6753C183.559 55.9764 186.637 53.3667 188.392 52.1758C192.516 55.5155 206.247 59.7807 214.917 45.0811C216.14 42.9715 213.509 40.4793 213.048 40.154ZM19.4877 50.8261C15.2985 50.8261 12.6122 46.9526 12.6122 42.776C12.6122 38.5994 15.0779 34.7259 19.2671 34.7259C21.1525 34.7259 22.2008 34.9334 23.6692 36.2105C23.9357 37.2594 24.6899 39.6796 25.0573 40.7786C25.549 42.249 26.1341 43.5008 26.7243 44.8632C25.8812 48.3576 23.1182 50.8261 19.4877 50.8261ZM29.6961 36.3333C29.5221 36.0557 29.5582 36.2262 29.3633 35.9639C28.5956 33.8752 27.1156 29.2124 26.9443 23.9162C26.7505 17.9256 27.7491 10.9036 30.6927 10.9036C32.6872 10.9036 34.807 25.1349 29.6961 36.3333ZM88.6818 30.0915C88.2091 26.5364 88.1845 10.6878 91.9892 11.1242C94.0897 11.9751 90.6572 26.9303 88.6818 30.0915ZM116.464 30.0915C115.991 26.5364 115.966 10.6878 119.771 11.1242C121.872 11.9751 118.439 26.9303 116.464 30.0915ZM144.025 30.3121C143.552 26.757 143.528 10.9084 147.332 11.3448C149.433 12.1957 146 27.151 144.025 30.3121ZM174.453 10.1965C177.932 9.83603 177.788 25.0265 170.806 34.6164C169.906 31.1504 168.525 11.3869 174.453 10.1965ZM189.074 42.8833C187.956 37.2397 190.843 33.5329 193.819 33.1265C194.859 32.9602 196.367 33.6342 196.667 34.894C197.162 37.2683 196.596 40.7899 189.935 45.2585C189.945 45.2966 189.323 44.14 189.074 42.8833Z" fill="#444444"/>
</svg>
