<?xml version="1.0" encoding="UTF-8"?>
<svg id="Layer_2" data-name="Layer 2" xmlns="http://www.w3.org/2000/svg" viewBox="0 0 9.56 13.43">
  <defs>
    <style>
      .cls-1 {
        stroke-width: 0px;
      }
    </style>
  </defs>
  <g id="ELEMENTS">
    <g>
      <path class="cls-1" d="M7.38,0H2.17C.98,0,0,.98,0,2.17v9.08c0,1.2.98,2.17,2.17,2.17h5.21c1.2,0,2.17-.98,2.17-2.17V2.17c0-1.2-.98-2.17-2.17-2.17ZM1.41,2.17c0-.42.34-.76.76-.76h5.21c.42,0,.76.34.76.76v9.08c0,.42-.34.76-.76.76H2.17c-.42,0-.76-.34-.76-.76V2.17Z"/>
      <path class="cls-1" d="M5.42,11.27h-1.28c-.39,0-.71-.32-.71-.71h0c0-.39.32-.71.71-.71h1.28c.39,0,.71.32.71.71h0c0,.39-.32.71-.71.71Z"/>
    </g>
  </g>
</svg>