<?xml version="1.0" encoding="UTF-8"?>
<svg id="Layer_2" data-name="Layer 2" xmlns="http://www.w3.org/2000/svg" viewBox="0 0 10.38 12.66">
  <defs>
    <style>
      .cls-1 {
        stroke-width: 0px;
      }
    </style>
  </defs>
  <g id="ELEMENTS">
    <g>
      <path class="cls-1" d="M5.19,0C2.33,0,0,2.33,0,5.19c0,1.91,2.09,4.78,3.85,6.85.34.39.82.62,1.34.62s1.01-.23,1.34-.62c1.76-2.07,3.85-4.94,3.85-6.85,0-2.86-2.33-5.19-5.19-5.19ZM5.46,11.13c-.09.11-.21.12-.27.12s-.18-.02-.27-.12c-2.2-2.59-3.51-4.81-3.51-5.94,0-2.09,1.7-3.78,3.78-3.78s3.78,1.7,3.78,3.78c0,1.12-1.31,3.34-3.51,5.94Z"/>
      <circle class="cls-1" cx="5.19" cy="4.98" r="1.07"/>
    </g>
  </g>
</svg>