<svg xmlns="http://www.w3.org/2000/svg" viewBox="0 0 1400 1400">
  <defs>
    <style>
      .cls-1 {
        fill: #1d1d1b;
      }

      .cls-2 {
        fill: #fff;
      }
    </style>
  </defs>
  <g id="Layer_2" data-name="Layer 2">
    <g id="Layer_1-2" data-name="Layer 1">
      <path class="cls-1" d="M1311.61,88.39h0A301.76,301.76,0,0,0,1098.22,0H301.78A301.76,301.76,0,0,0,88.39,88.39h0A301.76,301.76,0,0,0,0,301.78v796.44a301.76,301.76,0,0,0,88.39,213.39h0A301.76,301.76,0,0,0,301.78,1400h796.44a301.76,301.76,0,0,0,213.39-88.39h0A301.76,301.76,0,0,0,1400,1098.22V301.78A301.76,301.76,0,0,0,1311.61,88.39Z"/>
      <g>
        <path class="cls-2" d="M700,966.39a265.68,265.68,0,1,1,103.71-20.95A264.89,264.89,0,0,1,700,966.39Zm0-438.78C605,527.61,527.61,605,527.61,700S605,872.39,700,872.39,872.39,795.05,872.39,700,795.05,527.61,700,527.61Z"/>
        <path class="cls-2" d="M917,1218.4H483A301.18,301.18,0,0,1,181.6,917V483A301.18,301.18,0,0,1,483,181.6H917A301.18,301.18,0,0,1,1218.4,483V917A301.18,301.18,0,0,1,917,1218.4ZM483,275.6c-114.37,0-207.41,93-207.41,207.41V917c0,114.37,93,207.41,207.41,207.41H917c114.37,0,207.41-93,207.41-207.41V483c0-114.37-93-207.41-207.41-207.41Z"/>
        <path class="cls-2" d="M976.83,485.68a69.35,69.35,0,0,0,44.06-18.25,46.78,46.78,0,0,0,12.89-20.06,46.83,46.83,0,0,0,5.36-24l-2.22-16.57a62.26,62.26,0,0,0-16-27.5l-12.61-9.74a62,62,0,0,0-31.45-8.51,69.35,69.35,0,0,0-44.06,18.25,46.78,46.78,0,0,0-12.89,20.06,46.87,46.87,0,0,0-5.36,24l2.22,16.56a62.3,62.3,0,0,0,16,27.5l12.61,9.74a61.94,61.94,0,0,0,31.45,8.51Z"/>
      </g>
    </g>
  </g>
</svg>
