<svg width="24" height="24" viewBox="0 0 24 24" fill="none" xmlns="http://www.w3.org/2000/svg">
<path d="M9.1312 23.25C9.07964 23.25 9.02807 23.2453 8.9812 23.2359C8.7562 23.1984 8.55932 23.0719 8.42807 22.8844C8.29682 22.6969 8.24526 22.4672 8.28745 22.2422L9.59995 15H4.49995C4.20932 15 3.94682 14.8359 3.82495 14.5734C3.69839 14.3109 3.73589 14.0016 3.9187 13.7766L14.189 1.08281C14.3531 0.876563 14.6015 0.75 14.8687 0.75C14.9015 0.75 14.9437 0.75 14.9765 0.754688C15.2062 0.782813 15.4078 0.9 15.5531 1.08281C15.6937 1.26562 15.7593 1.49063 15.7312 1.72031C15.7312 1.73438 15.7265 1.74844 15.7265 1.7625L14.3999 9H19.4999C19.7906 9 20.0531 9.16406 20.1749 9.42656C20.3015 9.68906 20.264 9.99844 20.0812 10.2234L9.81089 22.9219C9.64682 23.1281 9.3937 23.25 9.1312 23.25ZM6.07026 13.5H10.4999C10.7203 13.5 10.9312 13.5984 11.0765 13.7672C11.2171 13.9359 11.2781 14.1609 11.2406 14.3812L10.2093 20.0391L17.9296 10.5H13.4999C13.2796 10.5 13.0687 10.4016 12.9234 10.2281C12.7828 10.0594 12.7218 9.82969 12.7593 9.61406L13.7953 3.95156L6.07026 13.5Z" fill="#373737"/>
</svg>
